# xmcd
#
# Track frame offsets:
#	150
#	21374
#	37849
#	57512
#	78648
#	98837
#	114382
#	135686
#	157390
#	176105
#	193949
#
# Disc length: 2925 seconds
#
# Revision: 1
# Processed by: cddbd v1.5.1PL0 Copyright (c) Steve Scherf et al.
# Submitted via: AudioConverter v5.0 Copyright (c) AC Productions Ltd
#
DISCID=9c0b6b0b
DTITLE=Acoustic Alchemy - American/English
DYEAR=2005
DGENRE=Jazz
TTITLE0=The Crossing
TTITLE1=Say Yeah
TTITLE2=So Kylie
TTITLE3=Trinity
TTITLE4=The Detroit Shuffle
TTITLE5=Cherry Hill
TTITLE6=She Speaks American English
TTITLE7=Lilac Lane
TTITLE8=The 14 Carrot Caf_
TTITLE9=Get Up (Levantar y Bailar)
TTITLE10=The Moon and The Sun
EXTD=YEAR: 2005
EXTT0=
EXTT1=
EXTT2=
EXTT3=
EXTT4=
EXTT5=
EXTT6=
EXTT7=
EXTT8=
EXTT9=
EXTT10=
PLAYORDER=
